<mxfile host="app.diagrams.net" modified="2023-06-19T02:52:46.049Z" agent="5.0 (Windows NT 10.0; Win64; x64) AppleWebKit/537.36 (KHTML, like Gecko) Chrome/91.0.4472.77 Safari/537.36" etag="WyNe88lsbtmz4veryCrb" version="21.0.2" type="github">
  <diagram name="第 1 页" id="8B-k1zMq9MWyNGinfL4T">
    <mxGraphModel dx="1434" dy="699" grid="1" gridSize="10" guides="1" tooltips="1" connect="1" arrows="1" fold="1" page="1" pageScale="1" pageWidth="1200" pageHeight="1920" math="0" shadow="0">
      <root>
        <mxCell id="0" />
        <mxCell id="1" parent="0" />
        <mxCell id="eqwMkMtmDms8Rk8_CgRz-1" value="Actor" style="shape=umlActor;verticalLabelPosition=bottom;verticalAlign=top;html=1;outlineConnect=0;" vertex="1" parent="1">
          <mxGeometry x="200" y="260" width="30" height="60" as="geometry" />
        </mxCell>
        <mxCell id="eqwMkMtmDms8Rk8_CgRz-2" value="" style="html=1;fillColor=#f5f5f5;fontColor=#333333;strokeColor=#666666;" vertex="1" parent="1">
          <mxGeometry x="50" width="1100" height="1150" as="geometry" />
        </mxCell>
        <mxCell id="eqwMkMtmDms8Rk8_CgRz-3" value="Imu" style="shape=umlActor;verticalLabelPosition=bottom;verticalAlign=top;html=1;fillColor=#dae8fc;strokeColor=#6c8ebf;fontStyle=1;fontSize=15;" vertex="1" parent="1">
          <mxGeometry x="190" y="173" width="30" height="60" as="geometry" />
        </mxCell>
        <mxCell id="eqwMkMtmDms8Rk8_CgRz-4" value="Tbox" style="html=1;fillColor=#dae8fc;strokeColor=#6c8ebf;fontStyle=1;horizontal=1;verticalAlign=top;fontSize=16;" vertex="1" parent="1">
          <mxGeometry x="290" y="40" width="640" height="830" as="geometry" />
        </mxCell>
        <mxCell id="eqwMkMtmDms8Rk8_CgRz-5" value="Tbox Process" style="ellipse;whiteSpace=wrap;html=1;fontSize=15;fillColor=#dae8fc;strokeColor=#6c8ebf;fontStyle=1" vertex="1" parent="1">
          <mxGeometry x="540" y="388" width="140" height="70" as="geometry" />
        </mxCell>
        <mxCell id="eqwMkMtmDms8Rk8_CgRz-6" value="Get Imu Msg" style="ellipse;whiteSpace=wrap;html=1;fontSize=15;fillColor=#dae8fc;strokeColor=#6c8ebf;fontStyle=1" vertex="1" parent="1">
          <mxGeometry x="350" y="163" width="140" height="70" as="geometry" />
        </mxCell>
        <mxCell id="eqwMkMtmDms8Rk8_CgRz-7" value="Get Vehicle Msg" style="ellipse;whiteSpace=wrap;html=1;fontSize=15;fillColor=#dae8fc;strokeColor=#6c8ebf;fontStyle=1" vertex="1" parent="1">
          <mxGeometry x="350" y="273" width="140" height="70" as="geometry" />
        </mxCell>
        <mxCell id="eqwMkMtmDms8Rk8_CgRz-8" value="Get CPE Msg" style="ellipse;whiteSpace=wrap;html=1;fontSize=15;fillColor=#dae8fc;strokeColor=#6c8ebf;fontStyle=1" vertex="1" parent="1">
          <mxGeometry x="350" y="493" width="140" height="70" as="geometry" />
        </mxCell>
        <mxCell id="eqwMkMtmDms8Rk8_CgRz-9" value="Get Fsm Msg" style="ellipse;whiteSpace=wrap;html=1;fontSize=15;fillColor=#dae8fc;strokeColor=#6c8ebf;fontStyle=1" vertex="1" parent="1">
          <mxGeometry x="730" y="168" width="140" height="70" as="geometry" />
        </mxCell>
        <mxCell id="eqwMkMtmDms8Rk8_CgRz-10" value="Get Perception Msg" style="ellipse;whiteSpace=wrap;html=1;fontSize=15;fillColor=#dae8fc;strokeColor=#6c8ebf;fontStyle=1" vertex="1" parent="1">
          <mxGeometry x="350" y="383" width="140" height="70" as="geometry" />
        </mxCell>
        <mxCell id="eqwMkMtmDms8Rk8_CgRz-11" value="Vehicle" style="shape=umlActor;verticalLabelPosition=bottom;verticalAlign=top;html=1;fillColor=#dae8fc;strokeColor=#6c8ebf;fontStyle=1;fontSize=15;" vertex="1" parent="1">
          <mxGeometry x="190" y="283" width="30" height="60" as="geometry" />
        </mxCell>
        <mxCell id="eqwMkMtmDms8Rk8_CgRz-12" value="CPE" style="shape=umlActor;verticalLabelPosition=bottom;verticalAlign=top;html=1;fillColor=#dae8fc;strokeColor=#6c8ebf;fontStyle=1;fontSize=15;" vertex="1" parent="1">
          <mxGeometry x="190" y="540" width="30" height="63" as="geometry" />
        </mxCell>
        <mxCell id="eqwMkMtmDms8Rk8_CgRz-13" value="Fsm" style="shape=umlActor;verticalLabelPosition=bottom;verticalAlign=top;html=1;fillColor=#dae8fc;strokeColor=#6c8ebf;fontStyle=1;fontSize=15;" vertex="1" parent="1">
          <mxGeometry x="1020" y="222" width="30" height="60" as="geometry" />
        </mxCell>
        <mxCell id="eqwMkMtmDms8Rk8_CgRz-14" value="&lt;span&gt;Perception&lt;/span&gt;" style="shape=umlActor;verticalLabelPosition=bottom;verticalAlign=top;html=1;fillColor=#dae8fc;strokeColor=#6c8ebf;fontStyle=1;fontSize=15;" vertex="1" parent="1">
          <mxGeometry x="190" y="393" width="30" height="60" as="geometry" />
        </mxCell>
        <mxCell id="eqwMkMtmDms8Rk8_CgRz-15" value="Set CPE Msg" style="ellipse;whiteSpace=wrap;html=1;fontSize=15;fillColor=#dae8fc;strokeColor=#6c8ebf;fontStyle=1" vertex="1" parent="1">
          <mxGeometry x="350" y="583" width="140" height="70" as="geometry" />
        </mxCell>
        <mxCell id="eqwMkMtmDms8Rk8_CgRz-16" value="Set Fsm Msg" style="ellipse;whiteSpace=wrap;html=1;fontSize=15;fillColor=#dae8fc;strokeColor=#6c8ebf;fontStyle=1" vertex="1" parent="1">
          <mxGeometry x="730" y="273" width="140" height="70" as="geometry" />
        </mxCell>
        <mxCell id="eqwMkMtmDms8Rk8_CgRz-17" value="Get MissionPlanning Msg" style="ellipse;whiteSpace=wrap;html=1;fontSize=15;fillColor=#dae8fc;strokeColor=#6c8ebf;fontStyle=1" vertex="1" parent="1">
          <mxGeometry x="730" y="388" width="140" height="70" as="geometry" />
        </mxCell>
        <mxCell id="eqwMkMtmDms8Rk8_CgRz-18" value="Set MissionPlanning Msg" style="ellipse;whiteSpace=wrap;html=1;fontSize=15;fillColor=#dae8fc;strokeColor=#6c8ebf;fontStyle=1" vertex="1" parent="1">
          <mxGeometry x="730" y="477" width="140" height="70" as="geometry" />
        </mxCell>
        <mxCell id="eqwMkMtmDms8Rk8_CgRz-19" value="record log" style="ellipse;whiteSpace=wrap;html=1;fontSize=15;fillColor=#dae8fc;strokeColor=#6c8ebf;fontStyle=1" vertex="1" parent="1">
          <mxGeometry x="730" y="583" width="140" height="70" as="geometry" />
        </mxCell>
        <mxCell id="eqwMkMtmDms8Rk8_CgRz-20" value="MissionPlanning" style="shape=umlActor;verticalLabelPosition=bottom;verticalAlign=top;html=1;fillColor=#dae8fc;strokeColor=#6c8ebf;fontStyle=1;fontSize=15;" vertex="1" parent="1">
          <mxGeometry x="1020" y="433" width="30" height="60" as="geometry" />
        </mxCell>
        <mxCell id="eqwMkMtmDms8Rk8_CgRz-21" value="ara::log" style="shape=umlActor;verticalLabelPosition=bottom;verticalAlign=top;html=1;fillColor=#dae8fc;strokeColor=#6c8ebf;fontStyle=1;fontSize=15;" vertex="1" parent="1">
          <mxGeometry x="1020" y="583" width="30" height="60" as="geometry" />
        </mxCell>
        <mxCell id="eqwMkMtmDms8Rk8_CgRz-22" value="" style="html=1;verticalAlign=bottom;endArrow=open;dashed=1;endSize=8;rounded=0;fontSize=15;entryX=1;entryY=0.5;entryDx=0;entryDy=0;exitX=0.5;exitY=0;exitDx=0;exitDy=0;" edge="1" parent="1" source="eqwMkMtmDms8Rk8_CgRz-5" target="eqwMkMtmDms8Rk8_CgRz-6">
          <mxGeometry relative="1" as="geometry">
            <mxPoint x="570" y="313" as="sourcePoint" />
            <mxPoint x="650" y="313" as="targetPoint" />
          </mxGeometry>
        </mxCell>
        <mxCell id="eqwMkMtmDms8Rk8_CgRz-23" value="" style="html=1;verticalAlign=bottom;endArrow=open;dashed=1;endSize=8;rounded=0;fontSize=15;entryX=1;entryY=0.5;entryDx=0;entryDy=0;exitX=0;exitY=0;exitDx=0;exitDy=0;" edge="1" parent="1" source="eqwMkMtmDms8Rk8_CgRz-5" target="eqwMkMtmDms8Rk8_CgRz-7">
          <mxGeometry relative="1" as="geometry">
            <mxPoint x="500" y="208" as="sourcePoint" />
            <mxPoint x="610" y="393" as="targetPoint" />
          </mxGeometry>
        </mxCell>
        <mxCell id="eqwMkMtmDms8Rk8_CgRz-24" value="" style="html=1;verticalAlign=bottom;endArrow=open;dashed=1;endSize=8;rounded=0;fontSize=15;entryX=1;entryY=0.5;entryDx=0;entryDy=0;exitX=0;exitY=0.5;exitDx=0;exitDy=0;" edge="1" parent="1" source="eqwMkMtmDms8Rk8_CgRz-5" target="eqwMkMtmDms8Rk8_CgRz-10">
          <mxGeometry relative="1" as="geometry">
            <mxPoint x="500" y="318" as="sourcePoint" />
            <mxPoint x="620" y="398" as="targetPoint" />
          </mxGeometry>
        </mxCell>
        <mxCell id="eqwMkMtmDms8Rk8_CgRz-25" value="" style="html=1;verticalAlign=bottom;endArrow=open;dashed=1;endSize=8;rounded=0;fontSize=15;entryX=1;entryY=0.5;entryDx=0;entryDy=0;exitX=0;exitY=1;exitDx=0;exitDy=0;" edge="1" parent="1" source="eqwMkMtmDms8Rk8_CgRz-5" target="eqwMkMtmDms8Rk8_CgRz-8">
          <mxGeometry relative="1" as="geometry">
            <mxPoint x="500" y="428" as="sourcePoint" />
            <mxPoint x="550" y="433" as="targetPoint" />
          </mxGeometry>
        </mxCell>
        <mxCell id="eqwMkMtmDms8Rk8_CgRz-26" value="" style="html=1;verticalAlign=bottom;endArrow=open;dashed=1;endSize=8;rounded=0;fontSize=15;entryX=1;entryY=0.5;entryDx=0;entryDy=0;exitX=0.5;exitY=1;exitDx=0;exitDy=0;" edge="1" parent="1" source="eqwMkMtmDms8Rk8_CgRz-5" target="eqwMkMtmDms8Rk8_CgRz-15">
          <mxGeometry relative="1" as="geometry">
            <mxPoint x="500" y="538" as="sourcePoint" />
            <mxPoint x="569.9948993037417" y="457.4922942185756" as="targetPoint" />
          </mxGeometry>
        </mxCell>
        <mxCell id="eqwMkMtmDms8Rk8_CgRz-27" value="" style="html=1;verticalAlign=bottom;endArrow=open;dashed=1;endSize=8;rounded=0;fontSize=15;entryX=0;entryY=0.5;entryDx=0;entryDy=0;exitX=0.5;exitY=0;exitDx=0;exitDy=0;" edge="1" parent="1" source="eqwMkMtmDms8Rk8_CgRz-5" target="eqwMkMtmDms8Rk8_CgRz-9">
          <mxGeometry relative="1" as="geometry">
            <mxPoint x="620" y="398" as="sourcePoint" />
            <mxPoint x="500" y="208" as="targetPoint" />
          </mxGeometry>
        </mxCell>
        <mxCell id="eqwMkMtmDms8Rk8_CgRz-28" value="" style="html=1;verticalAlign=bottom;endArrow=open;dashed=1;endSize=8;rounded=0;fontSize=15;entryX=0;entryY=0.5;entryDx=0;entryDy=0;exitX=1;exitY=0;exitDx=0;exitDy=0;" edge="1" parent="1" source="eqwMkMtmDms8Rk8_CgRz-5" target="eqwMkMtmDms8Rk8_CgRz-16">
          <mxGeometry relative="1" as="geometry">
            <mxPoint x="620" y="398" as="sourcePoint" />
            <mxPoint x="740" y="213" as="targetPoint" />
          </mxGeometry>
        </mxCell>
        <mxCell id="eqwMkMtmDms8Rk8_CgRz-29" value="" style="html=1;verticalAlign=bottom;endArrow=open;dashed=1;endSize=8;rounded=0;fontSize=15;entryX=0;entryY=0.5;entryDx=0;entryDy=0;exitX=1;exitY=0.5;exitDx=0;exitDy=0;" edge="1" parent="1" source="eqwMkMtmDms8Rk8_CgRz-5" target="eqwMkMtmDms8Rk8_CgRz-17">
          <mxGeometry relative="1" as="geometry">
            <mxPoint x="670.0051006962585" y="408.50770578142465" as="sourcePoint" />
            <mxPoint x="740" y="318" as="targetPoint" />
          </mxGeometry>
        </mxCell>
        <mxCell id="eqwMkMtmDms8Rk8_CgRz-30" value="" style="html=1;verticalAlign=bottom;endArrow=open;dashed=1;endSize=8;rounded=0;fontSize=15;entryX=0;entryY=0.5;entryDx=0;entryDy=0;exitX=1;exitY=1;exitDx=0;exitDy=0;" edge="1" parent="1" source="eqwMkMtmDms8Rk8_CgRz-5" target="eqwMkMtmDms8Rk8_CgRz-18">
          <mxGeometry relative="1" as="geometry">
            <mxPoint x="690" y="433" as="sourcePoint" />
            <mxPoint x="740" y="433" as="targetPoint" />
          </mxGeometry>
        </mxCell>
        <mxCell id="eqwMkMtmDms8Rk8_CgRz-31" value="" style="html=1;verticalAlign=bottom;endArrow=open;dashed=1;endSize=8;rounded=0;fontSize=15;entryX=0;entryY=0.5;entryDx=0;entryDy=0;exitX=0.5;exitY=1;exitDx=0;exitDy=0;" edge="1" parent="1" source="eqwMkMtmDms8Rk8_CgRz-5" target="eqwMkMtmDms8Rk8_CgRz-19">
          <mxGeometry relative="1" as="geometry">
            <mxPoint x="610" y="457" as="sourcePoint" />
            <mxPoint x="740" y="522" as="targetPoint" />
          </mxGeometry>
        </mxCell>
        <mxCell id="eqwMkMtmDms8Rk8_CgRz-32" value="" style="line;strokeWidth=1;fillColor=none;align=left;verticalAlign=middle;spacingTop=-1;spacingLeft=3;spacingRight=3;rotatable=0;labelPosition=right;points=[];portConstraint=eastwest;fontSize=15;" vertex="1" parent="1">
          <mxGeometry x="219" y="195" width="130" height="8" as="geometry" />
        </mxCell>
        <mxCell id="eqwMkMtmDms8Rk8_CgRz-33" value="" style="line;strokeWidth=1;fillColor=none;align=left;verticalAlign=middle;spacingTop=-1;spacingLeft=3;spacingRight=3;rotatable=0;labelPosition=right;points=[];portConstraint=eastwest;fontSize=15;" vertex="1" parent="1">
          <mxGeometry x="220" y="309" width="130" height="8" as="geometry" />
        </mxCell>
        <mxCell id="eqwMkMtmDms8Rk8_CgRz-34" value="" style="line;strokeWidth=1;fillColor=none;align=left;verticalAlign=middle;spacingTop=-1;spacingLeft=3;spacingRight=3;rotatable=0;labelPosition=right;points=[];portConstraint=eastwest;fontSize=15;" vertex="1" parent="1">
          <mxGeometry x="220" y="419" width="130" height="8" as="geometry" />
        </mxCell>
        <mxCell id="eqwMkMtmDms8Rk8_CgRz-35" value="" style="line;strokeWidth=1;fillColor=none;align=left;verticalAlign=middle;spacingTop=-1;spacingLeft=3;spacingRight=3;rotatable=0;labelPosition=right;points=[];portConstraint=eastwest;fontSize=15;" vertex="1" parent="1">
          <mxGeometry x="220" y="549" width="150" height="8" as="geometry" />
        </mxCell>
        <mxCell id="eqwMkMtmDms8Rk8_CgRz-36" value="" style="line;strokeWidth=1;fillColor=none;align=left;verticalAlign=middle;spacingTop=-1;spacingLeft=3;spacingRight=3;rotatable=0;labelPosition=right;points=[];portConstraint=eastwest;fontSize=15;" vertex="1" parent="1">
          <mxGeometry x="220" y="590" width="150" height="8" as="geometry" />
        </mxCell>
        <mxCell id="eqwMkMtmDms8Rk8_CgRz-37" value="" style="line;strokeWidth=1;fillColor=none;align=left;verticalAlign=middle;spacingTop=-1;spacingLeft=3;spacingRight=3;rotatable=0;labelPosition=right;points=[];portConstraint=eastwest;fontSize=15;" vertex="1" parent="1">
          <mxGeometry x="846" y="225" width="170" height="8" as="geometry" />
        </mxCell>
        <mxCell id="eqwMkMtmDms8Rk8_CgRz-38" value="" style="line;strokeWidth=1;fillColor=none;align=left;verticalAlign=middle;spacingTop=-1;spacingLeft=3;spacingRight=3;rotatable=0;labelPosition=right;points=[];portConstraint=eastwest;fontSize=15;" vertex="1" parent="1">
          <mxGeometry x="845" y="277" width="170" height="8" as="geometry" />
        </mxCell>
        <mxCell id="eqwMkMtmDms8Rk8_CgRz-39" value="" style="line;strokeWidth=1;fillColor=none;align=left;verticalAlign=middle;spacingTop=-1;spacingLeft=3;spacingRight=3;rotatable=0;labelPosition=right;points=[];portConstraint=eastwest;fontSize=15;" vertex="1" parent="1">
          <mxGeometry x="850" y="445" width="170" height="8" as="geometry" />
        </mxCell>
        <mxCell id="eqwMkMtmDms8Rk8_CgRz-40" value="" style="line;strokeWidth=1;fillColor=none;align=left;verticalAlign=middle;spacingTop=-1;spacingLeft=3;spacingRight=3;rotatable=0;labelPosition=right;points=[];portConstraint=eastwest;fontSize=15;" vertex="1" parent="1">
          <mxGeometry x="850" y="483" width="170" height="8" as="geometry" />
        </mxCell>
        <mxCell id="eqwMkMtmDms8Rk8_CgRz-41" value="" style="line;strokeWidth=1;fillColor=none;align=left;verticalAlign=middle;spacingTop=-1;spacingLeft=3;spacingRight=3;rotatable=0;labelPosition=right;points=[];portConstraint=eastwest;fontSize=15;" vertex="1" parent="1">
          <mxGeometry x="870" y="614" width="150" height="8" as="geometry" />
        </mxCell>
        <mxCell id="eqwMkMtmDms8Rk8_CgRz-42" value="Get&amp;nbsp;RoutePlanning Msg" style="ellipse;whiteSpace=wrap;html=1;fontSize=15;fillColor=#dae8fc;strokeColor=#6c8ebf;fontStyle=1" vertex="1" parent="1">
          <mxGeometry x="350" y="680" width="140" height="70" as="geometry" />
        </mxCell>
        <mxCell id="eqwMkMtmDms8Rk8_CgRz-43" value="Get LidarAEB Msg" style="ellipse;whiteSpace=wrap;html=1;fontSize=15;fillColor=#dae8fc;strokeColor=#6c8ebf;fontStyle=1" vertex="1" parent="1">
          <mxGeometry x="730" y="680" width="140" height="70" as="geometry" />
        </mxCell>
        <mxCell id="eqwMkMtmDms8Rk8_CgRz-44" value="&lt;span style=&quot;&quot;&gt;RoutePlanning&lt;/span&gt;" style="shape=umlActor;verticalLabelPosition=bottom;verticalAlign=top;html=1;fillColor=#dae8fc;strokeColor=#6c8ebf;fontStyle=1;fontSize=15;" vertex="1" parent="1">
          <mxGeometry x="190" y="680" width="29" height="60" as="geometry" />
        </mxCell>
        <mxCell id="eqwMkMtmDms8Rk8_CgRz-45" value="" style="line;strokeWidth=1;fillColor=none;align=left;verticalAlign=middle;spacingTop=-1;spacingLeft=3;spacingRight=3;rotatable=0;labelPosition=right;points=[];portConstraint=eastwest;fontSize=15;" vertex="1" parent="1">
          <mxGeometry x="210" y="711" width="140" height="8" as="geometry" />
        </mxCell>
        <mxCell id="eqwMkMtmDms8Rk8_CgRz-46" value="&lt;span style=&quot;&quot;&gt;LidarAEB&lt;/span&gt;" style="shape=umlActor;verticalLabelPosition=bottom;verticalAlign=top;html=1;fillColor=#dae8fc;strokeColor=#6c8ebf;fontStyle=1;fontSize=15;" vertex="1" parent="1">
          <mxGeometry x="1020" y="680" width="30" height="60" as="geometry" />
        </mxCell>
        <mxCell id="eqwMkMtmDms8Rk8_CgRz-47" value="" style="line;strokeWidth=1;fillColor=none;align=left;verticalAlign=middle;spacingTop=-1;spacingLeft=3;spacingRight=3;rotatable=0;labelPosition=right;points=[];portConstraint=eastwest;fontSize=15;" vertex="1" parent="1">
          <mxGeometry x="870" y="711" width="150" height="8" as="geometry" />
        </mxCell>
        <mxCell id="eqwMkMtmDms8Rk8_CgRz-48" value="" style="html=1;verticalAlign=bottom;endArrow=open;dashed=1;endSize=8;rounded=0;fontSize=15;entryX=1;entryY=0.5;entryDx=0;entryDy=0;" edge="1" parent="1" target="eqwMkMtmDms8Rk8_CgRz-42">
          <mxGeometry relative="1" as="geometry">
            <mxPoint x="610" y="460" as="sourcePoint" />
            <mxPoint x="500" y="628" as="targetPoint" />
          </mxGeometry>
        </mxCell>
        <mxCell id="eqwMkMtmDms8Rk8_CgRz-49" value="" style="html=1;verticalAlign=bottom;endArrow=open;dashed=1;endSize=8;rounded=0;fontSize=15;entryX=0;entryY=0.5;entryDx=0;entryDy=0;" edge="1" parent="1" target="eqwMkMtmDms8Rk8_CgRz-43">
          <mxGeometry relative="1" as="geometry">
            <mxPoint x="610" y="460" as="sourcePoint" />
            <mxPoint x="500" y="725" as="targetPoint" />
          </mxGeometry>
        </mxCell>
        <mxCell id="eqwMkMtmDms8Rk8_CgRz-50" value="Get Control Msg" style="ellipse;whiteSpace=wrap;html=1;fontSize=15;fillColor=#dae8fc;strokeColor=#6c8ebf;fontStyle=1" vertex="1" parent="1">
          <mxGeometry x="350" y="70" width="140" height="70" as="geometry" />
        </mxCell>
        <mxCell id="eqwMkMtmDms8Rk8_CgRz-51" value="Get MotionPlanning Msg" style="ellipse;whiteSpace=wrap;html=1;fontSize=15;fillColor=#dae8fc;strokeColor=#6c8ebf;fontStyle=1" vertex="1" parent="1">
          <mxGeometry x="740" y="70" width="140" height="70" as="geometry" />
        </mxCell>
        <mxCell id="eqwMkMtmDms8Rk8_CgRz-52" value="&lt;span style=&quot;&quot;&gt;Control&lt;/span&gt;" style="shape=umlActor;verticalLabelPosition=bottom;verticalAlign=top;html=1;fillColor=#dae8fc;strokeColor=#6c8ebf;fontStyle=1;fontSize=15;" vertex="1" parent="1">
          <mxGeometry x="190" y="78" width="30" height="60" as="geometry" />
        </mxCell>
        <mxCell id="eqwMkMtmDms8Rk8_CgRz-53" value="" style="line;strokeWidth=1;fillColor=none;align=left;verticalAlign=middle;spacingTop=-1;spacingLeft=3;spacingRight=3;rotatable=0;labelPosition=right;points=[];portConstraint=eastwest;fontSize=15;" vertex="1" parent="1">
          <mxGeometry x="219" y="100" width="130" height="8" as="geometry" />
        </mxCell>
        <mxCell id="eqwMkMtmDms8Rk8_CgRz-54" value="&lt;span style=&quot;&quot;&gt;MotionPlanning&lt;/span&gt;" style="shape=umlActor;verticalLabelPosition=bottom;verticalAlign=top;html=1;fillColor=#dae8fc;strokeColor=#6c8ebf;fontStyle=1;fontSize=15;" vertex="1" parent="1">
          <mxGeometry x="1020" y="70" width="30" height="60" as="geometry" />
        </mxCell>
        <mxCell id="eqwMkMtmDms8Rk8_CgRz-55" value="" style="line;strokeWidth=1;fillColor=none;align=left;verticalAlign=middle;spacingTop=-1;spacingLeft=3;spacingRight=3;rotatable=0;labelPosition=right;points=[];portConstraint=eastwest;fontSize=15;" vertex="1" parent="1">
          <mxGeometry x="880" y="101" width="140" height="8" as="geometry" />
        </mxCell>
        <mxCell id="eqwMkMtmDms8Rk8_CgRz-56" value="" style="html=1;verticalAlign=bottom;endArrow=open;dashed=1;endSize=8;rounded=0;fontSize=15;entryX=1;entryY=0.5;entryDx=0;entryDy=0;exitX=0.5;exitY=0;exitDx=0;exitDy=0;" edge="1" parent="1" source="eqwMkMtmDms8Rk8_CgRz-5" target="eqwMkMtmDms8Rk8_CgRz-50">
          <mxGeometry relative="1" as="geometry">
            <mxPoint x="610" y="380" as="sourcePoint" />
            <mxPoint x="500" y="208" as="targetPoint" />
          </mxGeometry>
        </mxCell>
        <mxCell id="eqwMkMtmDms8Rk8_CgRz-57" value="" style="html=1;verticalAlign=bottom;endArrow=open;dashed=1;endSize=8;rounded=0;fontSize=15;entryX=0;entryY=0.5;entryDx=0;entryDy=0;" edge="1" parent="1" target="eqwMkMtmDms8Rk8_CgRz-51">
          <mxGeometry relative="1" as="geometry">
            <mxPoint x="610" y="390" as="sourcePoint" />
            <mxPoint x="500" y="114.99999999999989" as="targetPoint" />
          </mxGeometry>
        </mxCell>
        <mxCell id="eqwMkMtmDms8Rk8_CgRz-58" value="Get&amp;nbsp;Systemscene Msg" style="ellipse;whiteSpace=wrap;html=1;fontSize=15;fillColor=#dae8fc;strokeColor=#6c8ebf;fontStyle=1" vertex="1" parent="1">
          <mxGeometry x="480" y="750" width="105" height="68" as="geometry" />
        </mxCell>
        <mxCell id="eqwMkMtmDms8Rk8_CgRz-59" value="Get&amp;nbsp;Systemscene Msg" style="ellipse;whiteSpace=wrap;html=1;fontSize=15;fillColor=#dae8fc;strokeColor=#6c8ebf;fontStyle=1" vertex="1" parent="1">
          <mxGeometry x="635" y="750" width="105" height="68" as="geometry" />
        </mxCell>
        <mxCell id="eqwMkMtmDms8Rk8_CgRz-60" value="&lt;span style=&quot;&quot;&gt;Systemscene&lt;/span&gt;" style="shape=umlActor;verticalLabelPosition=bottom;verticalAlign=top;html=1;fillColor=#dae8fc;strokeColor=#6c8ebf;fontStyle=1;fontSize=15;" vertex="1" parent="1">
          <mxGeometry x="585.5" y="890" width="29" height="60" as="geometry" />
        </mxCell>
        <mxCell id="eqwMkMtmDms8Rk8_CgRz-61" value="" style="html=1;verticalAlign=bottom;endArrow=open;dashed=1;endSize=8;rounded=0;fontSize=15;entryX=0.5;entryY=0;entryDx=0;entryDy=0;exitX=0.5;exitY=1;exitDx=0;exitDy=0;" edge="1" parent="1" source="eqwMkMtmDms8Rk8_CgRz-5" target="eqwMkMtmDms8Rk8_CgRz-58">
          <mxGeometry relative="1" as="geometry">
            <mxPoint x="620" y="470" as="sourcePoint" />
            <mxPoint x="500" y="725" as="targetPoint" />
          </mxGeometry>
        </mxCell>
        <mxCell id="eqwMkMtmDms8Rk8_CgRz-62" value="" style="html=1;verticalAlign=bottom;endArrow=open;dashed=1;endSize=8;rounded=0;fontSize=15;entryX=0.5;entryY=0;entryDx=0;entryDy=0;exitX=0.5;exitY=1;exitDx=0;exitDy=0;" edge="1" parent="1" source="eqwMkMtmDms8Rk8_CgRz-5" target="eqwMkMtmDms8Rk8_CgRz-59">
          <mxGeometry relative="1" as="geometry">
            <mxPoint x="620" y="468" as="sourcePoint" />
            <mxPoint x="542.5" y="760" as="targetPoint" />
          </mxGeometry>
        </mxCell>
        <mxCell id="eqwMkMtmDms8Rk8_CgRz-63" value="" style="endArrow=none;html=1;rounded=0;entryX=0.5;entryY=1;entryDx=0;entryDy=0;" edge="1" parent="1" target="eqwMkMtmDms8Rk8_CgRz-58">
          <mxGeometry width="50" height="50" relative="1" as="geometry">
            <mxPoint x="570" y="900" as="sourcePoint" />
            <mxPoint x="400" y="820" as="targetPoint" />
          </mxGeometry>
        </mxCell>
        <mxCell id="eqwMkMtmDms8Rk8_CgRz-64" value="" style="endArrow=none;html=1;rounded=0;entryX=0.5;entryY=1;entryDx=0;entryDy=0;" edge="1" parent="1" target="eqwMkMtmDms8Rk8_CgRz-59">
          <mxGeometry width="50" height="50" relative="1" as="geometry">
            <mxPoint x="630" y="900" as="sourcePoint" />
            <mxPoint x="542.5" y="828.0000000000002" as="targetPoint" />
          </mxGeometry>
        </mxCell>
      </root>
    </mxGraphModel>
  </diagram>
</mxfile>
